<svg width="152" height="151" viewBox="0 0 152 151" fill="none" xmlns="http://www.w3.org/2000/svg">
<path opacity="0.4" d="M117.965 12.5834H106.011C92.2954 12.5834 85.06 19.8188 85.06 33.5346V45.4888C85.06 59.2046 92.2954 66.44 106.011 66.44H117.965C131.681 66.44 138.917 59.2046 138.917 45.4888V33.5346C138.917 19.8188 131.681 12.5834 117.965 12.5834Z" fill="#78336C"/>
<path opacity="0.4" d="M46.0516 84.4971H34.0975C20.3187 84.4971 13.0833 91.7325 13.0833 105.448V117.402C13.0833 131.181 20.3187 138.417 34.0346 138.417H45.9887C59.7046 138.417 66.94 131.181 66.94 117.465V105.511C67.0029 91.7325 59.7675 84.4971 46.0516 84.4971Z" fill="#78336C"/>
<path d="M40.0746 66.5659C54.9814 66.5659 67.0658 54.4815 67.0658 39.5746C67.0658 24.6678 54.9814 12.5834 40.0746 12.5834C25.1677 12.5834 13.0833 24.6678 13.0833 39.5746C13.0833 54.4815 25.1677 66.5659 40.0746 66.5659Z" fill="#292D32"/>
<path d="M111.925 138.417C126.832 138.417 138.917 126.332 138.917 111.425C138.917 96.5186 126.832 84.4342 111.925 84.4342C97.0186 84.4342 84.9342 96.5186 84.9342 111.425C84.9342 126.332 97.0186 138.417 111.925 138.417Z" fill="#292D32"/>
</svg>
