<svg width="152" height="151" viewBox="0 0 152 151" fill="none" xmlns="http://www.w3.org/2000/svg">
<path opacity="0.4" d="M76 138.417C110.748 138.417 138.917 110.248 138.917 75.5C138.917 40.7521 110.748 12.5834 76 12.5834C41.2521 12.5834 13.0833 40.7521 13.0833 75.5C13.0833 110.248 41.2521 138.417 76 138.417Z" fill="#78336C"/>
<path d="M82.6691 75.4999L97.1399 61.0291C98.9645 59.2045 98.9645 56.1845 97.1399 54.3599C95.3153 52.5353 92.2953 52.5353 90.4707 54.3599L75.9999 68.8307L61.5291 54.3599C59.7045 52.5353 56.6845 52.5353 54.8599 54.3599C53.0353 56.1845 53.0353 59.2045 54.8599 61.0291L69.3307 75.4999L54.8599 89.9707C53.0353 91.7953 53.0353 94.8153 54.8599 96.6399C55.8036 97.5836 56.9991 98.0241 58.1945 98.0241C59.3899 98.0241 60.5853 97.5836 61.5291 96.6399L75.9999 82.1691L90.4707 96.6399C91.4145 97.5836 92.6099 98.0241 93.8053 98.0241C95.0007 98.0241 96.1961 97.5836 97.1399 96.6399C98.9645 94.8153 98.9645 91.7953 97.1399 89.9707L82.6691 75.4999Z" fill="#78336C"/>
</svg>
