<svg width="152" height="151" viewBox="0 0 152 151" fill="none" xmlns="http://www.w3.org/2000/svg">
<path opacity="0.4" d="M134.198 57.5688C119.664 34.73 98.3983 21.5804 76 21.5804C64.8008 21.5804 53.9162 24.8521 43.9754 30.955C34.0346 37.1209 25.1004 46.1179 17.8021 57.5688C11.5104 67.4467 11.5104 83.4904 17.8021 93.3684C32.3358 116.27 53.6017 129.357 76 129.357C87.1992 129.357 98.0837 126.085 108.025 119.982C117.965 113.816 126.9 104.819 134.198 93.3684C140.49 83.5534 140.49 67.4467 134.198 57.5688ZM76 100.918C61.9067 100.918 50.5817 89.5304 50.5817 75.5C50.5817 61.4696 61.9067 50.0817 76 50.0817C90.0933 50.0817 101.418 61.4696 101.418 75.5C101.418 89.5304 90.0933 100.918 76 100.918Z" fill="#78336C"/>
<path d="M76 57.5059C66.1221 57.5059 58.0688 65.5592 58.0688 75.5C58.0688 85.3779 66.1221 93.4313 76 93.4313C85.8779 93.4313 93.9942 85.3779 93.9942 75.5C93.9942 65.6221 85.8779 57.5059 76 57.5059Z" fill="#78336C"/>
</svg>
