<svg width="151" height="152" viewBox="0 0 151 152" fill="none" xmlns="http://www.w3.org/2000/svg">
<path opacity="0.4" d="M67.6354 15.8373C71.9767 12.1252 79.0863 12.1252 83.4904 15.8373L93.4313 24.394C95.3188 26.0298 98.8421 27.351 101.359 27.351H112.055C118.724 27.351 124.198 32.8248 124.198 39.494V50.1898C124.198 52.6435 125.519 56.2298 127.155 58.1173L135.711 68.0581C139.423 72.3994 139.423 79.509 135.711 83.9131L127.155 93.854C125.519 95.7415 124.198 99.2648 124.198 101.781V112.477C124.198 119.146 118.724 124.62 112.055 124.62H101.359C98.905 124.62 95.3188 125.941 93.4313 127.577L83.4904 136.134C79.1492 139.846 72.0396 139.846 67.6354 136.134L57.6946 127.577C55.8071 125.941 52.2838 124.62 49.7671 124.62H38.8825C32.2133 124.62 26.7396 119.146 26.7396 112.477V101.719C26.7396 99.2648 25.4183 95.7415 23.8454 93.854L15.3517 83.8502C11.7025 79.509 11.7025 72.4623 15.3517 68.121L23.8454 58.1173C25.4183 56.2298 26.7396 52.7065 26.7396 50.2527V39.431C26.7396 32.7619 32.2133 27.2881 38.8825 27.2881H49.7671C52.2208 27.2881 55.8071 25.9669 57.6946 24.331L67.6354 15.8373Z" fill="#78336C"/>
<path d="M67.8871 95.8676C66.6287 95.8676 65.4333 95.3643 64.5525 94.4835L49.3267 79.2576C47.5021 77.4331 47.5021 74.4131 49.3267 72.5885C51.1512 70.7639 54.1712 70.7639 55.9958 72.5885L67.8871 84.4797L94.9412 57.4256C96.7658 55.601 99.7858 55.601 101.61 57.4256C103.435 59.2501 103.435 62.2701 101.61 64.0947L71.2217 94.4835C70.3408 95.3643 69.1454 95.8676 67.8871 95.8676Z" fill="#78336C"/>
</svg>
