<svg width="151" height="152" viewBox="0 0 151 152" fill="none" xmlns="http://www.w3.org/2000/svg">
<path opacity="0.4" d="M132.125 143.558H18.875C16.2954 143.558 14.1562 141.419 14.1562 138.839C14.1562 136.26 16.2954 134.121 18.875 134.121H132.125C134.705 134.121 136.844 136.26 136.844 138.839C136.844 141.419 134.705 143.558 132.125 143.558Z" fill="#78336C"/>
<path d="M35.2332 53.147H25.1667C21.7062 53.147 18.875 55.9782 18.875 59.4386V113.673C18.875 117.133 21.7062 119.964 25.1667 119.964H35.2332C38.6936 119.964 41.5248 117.133 41.5248 113.673V59.4386C41.5248 55.9153 38.6936 53.147 35.2332 53.147Z" fill="#78336C"/>
<path d="M80.5332 33.0767H70.4667C67.0063 33.0767 64.175 35.9079 64.175 39.3683V113.673C64.175 117.133 67.0063 119.965 70.4667 119.965H80.5332C83.9936 119.965 86.8249 117.133 86.8249 113.673V39.3683C86.8249 35.9079 83.9936 33.0767 80.5332 33.0767Z" fill="#78336C"/>
<path d="M125.833 13.0063H115.767C112.306 13.0063 109.475 15.8376 109.475 19.298V113.673C109.475 117.133 112.306 119.965 115.767 119.965H125.833C129.294 119.965 132.125 117.133 132.125 113.673V19.298C132.125 15.8376 129.294 13.0063 125.833 13.0063Z" fill="#78336C"/>
</svg>
