<svg width="151" height="152" viewBox="0 0 151 152" fill="none" xmlns="http://www.w3.org/2000/svg">
<path opacity="0.4" d="M122.688 63.1509V119.965C122.688 132.548 119.542 138.84 103.812 138.84H47.1875C31.4583 138.84 28.3125 132.548 28.3125 119.965V63.1509C29.3192 63.2767 30.3887 63.3396 31.4583 63.3396H119.542C120.611 63.3396 121.681 63.2767 122.688 63.1509Z" fill="#78336C"/>
<path d="M138.417 31.8813V44.4647C138.417 55.9784 133.195 62.2072 122.688 63.1509C121.681 63.2768 120.611 63.3397 119.542 63.3397H31.4583C30.3888 63.3397 29.3192 63.2768 28.3125 63.1509C17.8054 62.2072 12.5833 55.9784 12.5833 44.4647V31.8813C12.5833 19.298 18.875 13.0063 31.4583 13.0063H119.542C132.125 13.0063 138.417 19.298 138.417 31.8813Z" fill="#78336C"/>
<path d="M86.9508 93.2251H64.0492C61.4696 93.2251 59.3304 91.0859 59.3304 88.5063C59.3304 85.9268 61.4696 83.7876 64.0492 83.7876H86.9508C89.5304 83.7876 91.6696 85.9268 91.6696 88.5063C91.6696 91.0859 89.5304 93.2251 86.9508 93.2251Z" fill="#292D32"/>
</svg>
