<svg width="151" height="152" viewBox="0 0 151 152" fill="none" xmlns="http://www.w3.org/2000/svg">
<path d="M37.75 82.2144C20.385 82.2144 6.29166 96.2448 6.29166 113.673C6.29166 131.101 20.385 145.131 37.75 145.131C55.115 145.131 69.2083 131.038 69.2083 113.673C69.2083 96.3077 55.1779 82.2144 37.75 82.2144ZM24.9149 100.838H37.75C40.1408 100.838 42.0283 102.788 42.0283 105.116C42.0283 107.444 40.0779 109.394 37.75 109.394H24.9149C22.5241 109.394 20.6366 107.444 20.6366 105.116C20.6366 102.788 22.5241 100.838 24.9149 100.838ZM50.585 126.508H24.8521C22.4613 126.508 20.5737 124.557 20.5737 122.229C20.5737 119.901 22.5242 117.951 24.8521 117.951H50.585C52.9759 117.951 54.8633 119.901 54.8633 122.229C54.8633 124.557 52.9759 126.508 50.585 126.508Z" fill="#78336C"/>
<path opacity="0.4" d="M106.958 19.2979H44.0417C25.1667 19.2979 12.5833 28.7354 12.5833 50.7562V70.512C12.5833 75.1049 17.3022 77.9991 21.5176 76.1745C28.4384 73.1545 36.3028 72.022 44.5449 73.3432C61.0291 76.0487 74.4933 89.0725 77.8279 105.431C78.7717 110.212 78.8975 114.868 78.2684 119.335C77.765 123.047 80.785 126.319 84.497 126.319H106.958C125.833 126.319 138.417 116.882 138.417 94.8607V50.8191C138.417 28.7353 125.833 19.2979 106.958 19.2979Z" fill="#78336C"/>
<path d="M75.4999 75.1051C70.2149 75.1051 64.867 73.4693 60.7775 70.1347L41.0845 54.4056C39.0712 52.7697 38.6937 49.8126 40.3295 47.7993C41.9654 45.786 44.9224 45.4085 46.9357 47.0443L66.6287 62.7735C71.4103 66.6114 79.5266 66.6114 84.3082 62.7735L104.001 47.0443C106.015 45.4085 109.034 45.7231 110.607 47.7993C112.243 49.8126 111.929 52.8327 109.852 54.4056L90.1594 70.1347C86.1328 73.4693 80.7849 75.1051 75.4999 75.1051Z" fill="#78336C"/>
</svg>
